<mxfile host="app.diagrams.net" modified="2022-06-20T15:19:04.603Z" agent="5.0 (Macintosh; Intel Mac OS X 10_15_7) AppleWebKit/537.36 (KHTML, like Gecko) Chrome/100.0.4896.143 YaBrowser/22.5.0.1885 Yowser/2.5 Safari/537.36" etag="bl7pOoT_BHLHtgwyM6S7" version="20.0.1" type="github" pages="2">
  <diagram id="kgpKYQtTHZ0yAKxKKP6v" name="Page-1">
    <mxGraphModel dx="1106" dy="621" grid="1" gridSize="10" guides="1" tooltips="1" connect="1" arrows="1" fold="1" page="1" pageScale="1" pageWidth="850" pageHeight="1100" math="0" shadow="0">
      <root>
        <mxCell id="0" />
        <mxCell id="1" parent="0" />
        <mxCell id="3nuBFxr9cyL0pnOWT2aG-1" value=":Object" style="shape=umlLifeline;perimeter=lifelinePerimeter;container=1;collapsible=0;recursiveResize=0;rounded=0;shadow=0;strokeWidth=1;" parent="1" vertex="1">
          <mxGeometry x="120" y="80" width="100" height="300" as="geometry" />
        </mxCell>
        <mxCell id="3nuBFxr9cyL0pnOWT2aG-2" value="" style="points=[];perimeter=orthogonalPerimeter;rounded=0;shadow=0;strokeWidth=1;" parent="3nuBFxr9cyL0pnOWT2aG-1" vertex="1">
          <mxGeometry x="45" y="70" width="10" height="190" as="geometry" />
        </mxCell>
        <mxCell id="3nuBFxr9cyL0pnOWT2aG-3" value="dispatch" style="verticalAlign=bottom;startArrow=oval;endArrow=block;startSize=8;shadow=0;strokeWidth=1;" parent="3nuBFxr9cyL0pnOWT2aG-1" target="3nuBFxr9cyL0pnOWT2aG-2" edge="1">
          <mxGeometry relative="1" as="geometry">
            <mxPoint x="-15" y="70" as="sourcePoint" />
          </mxGeometry>
        </mxCell>
        <mxCell id="3nuBFxr9cyL0pnOWT2aG-4" value="" style="points=[];perimeter=orthogonalPerimeter;rounded=0;shadow=0;strokeWidth=1;" parent="3nuBFxr9cyL0pnOWT2aG-1" vertex="1">
          <mxGeometry x="50" y="120" width="10" height="80" as="geometry" />
        </mxCell>
        <mxCell id="3nuBFxr9cyL0pnOWT2aG-5" value=":Object" style="shape=umlLifeline;perimeter=lifelinePerimeter;container=1;collapsible=0;recursiveResize=0;rounded=0;shadow=0;strokeWidth=1;" parent="1" vertex="1">
          <mxGeometry x="300" y="80" width="100" height="300" as="geometry" />
        </mxCell>
        <mxCell id="3nuBFxr9cyL0pnOWT2aG-6" value="" style="points=[];perimeter=orthogonalPerimeter;rounded=0;shadow=0;strokeWidth=1;" parent="3nuBFxr9cyL0pnOWT2aG-5" vertex="1">
          <mxGeometry x="45" y="80" width="10" height="160" as="geometry" />
        </mxCell>
        <mxCell id="3nuBFxr9cyL0pnOWT2aG-7" value="return" style="verticalAlign=bottom;endArrow=open;dashed=1;endSize=8;exitX=0;exitY=0.95;shadow=0;strokeWidth=1;" parent="1" source="3nuBFxr9cyL0pnOWT2aG-6" target="3nuBFxr9cyL0pnOWT2aG-2" edge="1">
          <mxGeometry relative="1" as="geometry">
            <mxPoint x="275" y="236" as="targetPoint" />
          </mxGeometry>
        </mxCell>
        <mxCell id="3nuBFxr9cyL0pnOWT2aG-8" value="dispatch" style="verticalAlign=bottom;endArrow=block;entryX=0;entryY=0;shadow=0;strokeWidth=1;" parent="1" source="3nuBFxr9cyL0pnOWT2aG-2" target="3nuBFxr9cyL0pnOWT2aG-6" edge="1">
          <mxGeometry relative="1" as="geometry">
            <mxPoint x="275" y="160" as="sourcePoint" />
          </mxGeometry>
        </mxCell>
        <mxCell id="3nuBFxr9cyL0pnOWT2aG-9" value="callback" style="verticalAlign=bottom;endArrow=block;entryX=1;entryY=0;shadow=0;strokeWidth=1;" parent="1" source="3nuBFxr9cyL0pnOWT2aG-6" target="3nuBFxr9cyL0pnOWT2aG-4" edge="1">
          <mxGeometry relative="1" as="geometry">
            <mxPoint x="240" y="200" as="sourcePoint" />
          </mxGeometry>
        </mxCell>
        <mxCell id="3nuBFxr9cyL0pnOWT2aG-10" value="return" style="verticalAlign=bottom;endArrow=open;dashed=1;endSize=8;exitX=1;exitY=0.95;shadow=0;strokeWidth=1;" parent="1" source="3nuBFxr9cyL0pnOWT2aG-4" target="3nuBFxr9cyL0pnOWT2aG-6" edge="1">
          <mxGeometry relative="1" as="geometry">
            <mxPoint x="240" y="257" as="targetPoint" />
          </mxGeometry>
        </mxCell>
      </root>
    </mxGraphModel>
  </diagram>
  <diagram id="SJ9oDZLUsii9XyhUUn02" name="Page-2">
    <mxGraphModel dx="1164" dy="654" grid="1" gridSize="10" guides="1" tooltips="1" connect="1" arrows="1" fold="1" page="1" pageScale="1" pageWidth="827" pageHeight="1169" math="0" shadow="0">
      <root>
        <mxCell id="0" />
        <mxCell id="1" parent="0" />
        <mxCell id="C-iexv-m7VxMcUPQXAUR-1" value="" style="shape=umlLifeline;participant=umlActor;perimeter=lifelinePerimeter;whiteSpace=wrap;html=1;container=1;collapsible=0;recursiveResize=0;verticalAlign=top;spacingTop=36;outlineConnect=0;" vertex="1" parent="1">
          <mxGeometry x="220" y="330" width="20" height="300" as="geometry" />
        </mxCell>
        <mxCell id="C-iexv-m7VxMcUPQXAUR-2" value="Pizza POST" style="shape=umlFrame;whiteSpace=wrap;html=1;" vertex="1" parent="1">
          <mxGeometry x="130" y="410" width="630" height="320" as="geometry" />
        </mxCell>
        <mxCell id="C-iexv-m7VxMcUPQXAUR-3" value="Fetch API" style="shape=umlLifeline;perimeter=lifelinePerimeter;whiteSpace=wrap;html=1;container=1;collapsible=0;recursiveResize=0;outlineConnect=0;" vertex="1" parent="1">
          <mxGeometry x="360" y="330" width="100" height="370" as="geometry" />
        </mxCell>
        <mxCell id="C-iexv-m7VxMcUPQXAUR-7" value="" style="html=1;points=[];perimeter=orthogonalPerimeter;" vertex="1" parent="C-iexv-m7VxMcUPQXAUR-3">
          <mxGeometry x="44" y="70" width="10" height="300" as="geometry" />
        </mxCell>
        <mxCell id="C-iexv-m7VxMcUPQXAUR-34" value="&lt;font style=&quot;font-size: 10px;&quot;&gt;returns HTTP status 404 and message&lt;/font&gt;" style="html=1;verticalAlign=bottom;endArrow=open;dashed=1;endSize=8;rounded=0;exitX=0.067;exitY=0.967;exitDx=0;exitDy=0;exitPerimeter=0;" edge="1" parent="C-iexv-m7VxMcUPQXAUR-3">
          <mxGeometry relative="1" as="geometry">
            <mxPoint x="235.67000000000007" y="328.96000000000004" as="sourcePoint" />
            <mxPoint x="54" y="330" as="targetPoint" />
          </mxGeometry>
        </mxCell>
        <mxCell id="C-iexv-m7VxMcUPQXAUR-32" value="" style="endArrow=open;endFill=1;endSize=12;html=1;rounded=0;entryX=0.01;entryY=-0.007;entryDx=0;entryDy=0;entryPerimeter=0;" edge="1" parent="C-iexv-m7VxMcUPQXAUR-3">
          <mxGeometry width="160" relative="1" as="geometry">
            <mxPoint x="54" y="290.27999999999986" as="sourcePoint" />
            <mxPoint x="235.0999999999999" y="290" as="targetPoint" />
          </mxGeometry>
        </mxCell>
        <mxCell id="C-iexv-m7VxMcUPQXAUR-33" value="Does POST with JSON data" style="edgeLabel;html=1;align=center;verticalAlign=middle;resizable=0;points=[];" vertex="1" connectable="0" parent="C-iexv-m7VxMcUPQXAUR-32">
          <mxGeometry x="0.1514" y="1" relative="1" as="geometry">
            <mxPoint x="-16" y="1" as="offset" />
          </mxGeometry>
        </mxCell>
        <mxCell id="C-iexv-m7VxMcUPQXAUR-35" value="&lt;font style=&quot;font-size: 10px;&quot;&gt;shows error message&lt;/font&gt;" style="html=1;verticalAlign=bottom;endArrow=open;dashed=1;endSize=8;rounded=0;exitX=0.6;exitY=0.383;exitDx=0;exitDy=0;exitPerimeter=0;entryX=0.99;entryY=0.569;entryDx=0;entryDy=0;entryPerimeter=0;" edge="1" parent="C-iexv-m7VxMcUPQXAUR-3">
          <mxGeometry x="0.0022" relative="1" as="geometry">
            <mxPoint x="44" y="330" as="sourcePoint" />
            <mxPoint x="-125.10000000000014" y="330.6999999999998" as="targetPoint" />
            <mxPoint as="offset" />
          </mxGeometry>
        </mxCell>
        <mxCell id="C-iexv-m7VxMcUPQXAUR-5" value="API" style="shape=umlLifeline;perimeter=lifelinePerimeter;whiteSpace=wrap;html=1;container=1;collapsible=0;recursiveResize=0;outlineConnect=0;" vertex="1" parent="1">
          <mxGeometry x="550" y="330" width="100" height="380" as="geometry" />
        </mxCell>
        <mxCell id="C-iexv-m7VxMcUPQXAUR-13" value="" style="html=1;points=[];perimeter=orthogonalPerimeter;" vertex="1" parent="C-iexv-m7VxMcUPQXAUR-5">
          <mxGeometry x="45" y="110" width="10" height="40" as="geometry" />
        </mxCell>
        <mxCell id="C-iexv-m7VxMcUPQXAUR-14" value="Saves object to DB" style="edgeStyle=orthogonalEdgeStyle;html=1;align=left;spacingLeft=2;endArrow=block;rounded=0;" edge="1" target="C-iexv-m7VxMcUPQXAUR-13" parent="C-iexv-m7VxMcUPQXAUR-5" source="C-iexv-m7VxMcUPQXAUR-13">
          <mxGeometry relative="1" as="geometry">
            <mxPoint x="-190" y="110" as="sourcePoint" />
            <Array as="points">
              <mxPoint x="100" y="110" />
              <mxPoint x="100" y="130" />
            </Array>
            <mxPoint x="50" y="140" as="targetPoint" />
          </mxGeometry>
        </mxCell>
        <mxCell id="C-iexv-m7VxMcUPQXAUR-20" value="" style="html=1;points=[];perimeter=orthogonalPerimeter;" vertex="1" parent="C-iexv-m7VxMcUPQXAUR-5">
          <mxGeometry x="45" y="200" width="10" height="40" as="geometry" />
        </mxCell>
        <mxCell id="C-iexv-m7VxMcUPQXAUR-21" value="Object wrong!" style="edgeStyle=orthogonalEdgeStyle;html=1;align=left;spacingLeft=2;endArrow=block;rounded=0;" edge="1" parent="C-iexv-m7VxMcUPQXAUR-5" source="C-iexv-m7VxMcUPQXAUR-20" target="C-iexv-m7VxMcUPQXAUR-20">
          <mxGeometry relative="1" as="geometry">
            <mxPoint x="-740" y="-130" as="sourcePoint" />
            <Array as="points">
              <mxPoint x="100" y="200" />
              <mxPoint x="100" y="220" />
            </Array>
            <mxPoint x="-500" y="-100" as="targetPoint" />
          </mxGeometry>
        </mxCell>
        <mxCell id="C-iexv-m7VxMcUPQXAUR-26" value="" style="html=1;points=[];perimeter=orthogonalPerimeter;" vertex="1" parent="C-iexv-m7VxMcUPQXAUR-5">
          <mxGeometry x="45" y="290" width="10" height="40" as="geometry" />
        </mxCell>
        <mxCell id="C-iexv-m7VxMcUPQXAUR-27" value="Object wrong!" style="edgeStyle=orthogonalEdgeStyle;html=1;align=left;spacingLeft=2;endArrow=block;rounded=0;" edge="1" parent="C-iexv-m7VxMcUPQXAUR-5" source="C-iexv-m7VxMcUPQXAUR-26" target="C-iexv-m7VxMcUPQXAUR-26">
          <mxGeometry relative="1" as="geometry">
            <mxPoint x="-1290" y="-370" as="sourcePoint" />
            <Array as="points">
              <mxPoint x="100" y="290" />
              <mxPoint x="100" y="310" />
            </Array>
            <mxPoint x="-1050" y="-340" as="targetPoint" />
          </mxGeometry>
        </mxCell>
        <mxCell id="C-iexv-m7VxMcUPQXAUR-6" value="" style="html=1;points=[];perimeter=orthogonalPerimeter;" vertex="1" parent="1">
          <mxGeometry x="225" y="400" width="10" height="300" as="geometry" />
        </mxCell>
        <mxCell id="C-iexv-m7VxMcUPQXAUR-9" value="" style="endArrow=open;endFill=1;endSize=12;html=1;rounded=0;" edge="1" parent="1" target="C-iexv-m7VxMcUPQXAUR-3">
          <mxGeometry width="160" relative="1" as="geometry">
            <mxPoint x="235" y="400" as="sourcePoint" />
            <mxPoint x="395" y="400" as="targetPoint" />
          </mxGeometry>
        </mxCell>
        <mxCell id="C-iexv-m7VxMcUPQXAUR-10" value="Submits form" style="edgeLabel;html=1;align=center;verticalAlign=middle;resizable=0;points=[];" vertex="1" connectable="0" parent="C-iexv-m7VxMcUPQXAUR-9">
          <mxGeometry x="0.1514" y="1" relative="1" as="geometry">
            <mxPoint x="-16" y="1" as="offset" />
          </mxGeometry>
        </mxCell>
        <mxCell id="C-iexv-m7VxMcUPQXAUR-16" value="" style="endArrow=open;endFill=1;endSize=12;html=1;rounded=0;entryX=0.01;entryY=-0.007;entryDx=0;entryDy=0;entryPerimeter=0;" edge="1" parent="1" target="C-iexv-m7VxMcUPQXAUR-13">
          <mxGeometry width="160" relative="1" as="geometry">
            <mxPoint x="414" y="440" as="sourcePoint" />
            <mxPoint x="588.5" y="440" as="targetPoint" />
          </mxGeometry>
        </mxCell>
        <mxCell id="C-iexv-m7VxMcUPQXAUR-17" value="Does POST with JSON data" style="edgeLabel;html=1;align=center;verticalAlign=middle;resizable=0;points=[];" vertex="1" connectable="0" parent="C-iexv-m7VxMcUPQXAUR-16">
          <mxGeometry x="0.1514" y="1" relative="1" as="geometry">
            <mxPoint x="-16" y="1" as="offset" />
          </mxGeometry>
        </mxCell>
        <mxCell id="C-iexv-m7VxMcUPQXAUR-18" value="&lt;font style=&quot;font-size: 10px;&quot;&gt;returns saved object: HTTP status 201&lt;/font&gt;" style="html=1;verticalAlign=bottom;endArrow=open;dashed=1;endSize=8;rounded=0;exitX=0.067;exitY=0.967;exitDx=0;exitDy=0;exitPerimeter=0;" edge="1" parent="1" source="C-iexv-m7VxMcUPQXAUR-13">
          <mxGeometry relative="1" as="geometry">
            <mxPoint x="494" y="479.62" as="sourcePoint" />
            <mxPoint x="414" y="479.62" as="targetPoint" />
          </mxGeometry>
        </mxCell>
        <mxCell id="C-iexv-m7VxMcUPQXAUR-19" value="&lt;font style=&quot;font-size: 10px;&quot;&gt;shows info on page&lt;/font&gt;" style="html=1;verticalAlign=bottom;endArrow=open;dashed=1;endSize=8;rounded=0;exitX=-0.141;exitY=0.268;exitDx=0;exitDy=0;exitPerimeter=0;entryX=0.99;entryY=0.266;entryDx=0;entryDy=0;entryPerimeter=0;" edge="1" parent="1" source="C-iexv-m7VxMcUPQXAUR-7" target="C-iexv-m7VxMcUPQXAUR-6">
          <mxGeometry x="0.0022" relative="1" as="geometry">
            <mxPoint x="400" y="480" as="sourcePoint" />
            <mxPoint x="235" y="480.4699999999999" as="targetPoint" />
            <mxPoint as="offset" />
          </mxGeometry>
        </mxCell>
        <mxCell id="C-iexv-m7VxMcUPQXAUR-22" value="" style="endArrow=open;endFill=1;endSize=12;html=1;rounded=0;entryX=0.01;entryY=-0.007;entryDx=0;entryDy=0;entryPerimeter=0;" edge="1" parent="1">
          <mxGeometry width="160" relative="1" as="geometry">
            <mxPoint x="414" y="530.28" as="sourcePoint" />
            <mxPoint x="595.0999999999999" y="530" as="targetPoint" />
          </mxGeometry>
        </mxCell>
        <mxCell id="C-iexv-m7VxMcUPQXAUR-23" value="Does POST with JSON data" style="edgeLabel;html=1;align=center;verticalAlign=middle;resizable=0;points=[];" vertex="1" connectable="0" parent="C-iexv-m7VxMcUPQXAUR-22">
          <mxGeometry x="0.1514" y="1" relative="1" as="geometry">
            <mxPoint x="-16" y="1" as="offset" />
          </mxGeometry>
        </mxCell>
        <mxCell id="C-iexv-m7VxMcUPQXAUR-24" value="&lt;font style=&quot;font-size: 10px;&quot;&gt;returns HTTP status 400 and message&lt;/font&gt;" style="html=1;verticalAlign=bottom;endArrow=open;dashed=1;endSize=8;rounded=0;exitX=0.067;exitY=0.967;exitDx=0;exitDy=0;exitPerimeter=0;" edge="1" parent="1">
          <mxGeometry relative="1" as="geometry">
            <mxPoint x="595.6700000000001" y="568.96" as="sourcePoint" />
            <mxPoint x="414" y="570" as="targetPoint" />
          </mxGeometry>
        </mxCell>
        <mxCell id="C-iexv-m7VxMcUPQXAUR-25" value="&lt;font style=&quot;font-size: 10px;&quot;&gt;shows error message&lt;/font&gt;" style="html=1;verticalAlign=bottom;endArrow=open;dashed=1;endSize=8;rounded=0;exitX=0.6;exitY=0.383;exitDx=0;exitDy=0;exitPerimeter=0;entryX=0.99;entryY=0.569;entryDx=0;entryDy=0;entryPerimeter=0;" edge="1" parent="1" target="C-iexv-m7VxMcUPQXAUR-6">
          <mxGeometry x="0.0022" relative="1" as="geometry">
            <mxPoint x="404" y="570" as="sourcePoint" />
            <mxPoint x="240" y="570" as="targetPoint" />
            <mxPoint as="offset" />
          </mxGeometry>
        </mxCell>
        <mxCell id="C-iexv-m7VxMcUPQXAUR-37" value="" style="shape=umlLifeline;participant=umlActor;perimeter=lifelinePerimeter;whiteSpace=wrap;html=1;container=1;collapsible=0;recursiveResize=0;verticalAlign=top;spacingTop=36;outlineConnect=0;" vertex="1" parent="1">
          <mxGeometry x="220" y="960" width="20" height="300" as="geometry" />
        </mxCell>
        <mxCell id="C-iexv-m7VxMcUPQXAUR-38" value="Pizza PUT" style="shape=umlFrame;whiteSpace=wrap;html=1;" vertex="1" parent="1">
          <mxGeometry x="130" y="1040" width="630" height="320" as="geometry" />
        </mxCell>
        <mxCell id="C-iexv-m7VxMcUPQXAUR-39" value="Fetch API" style="shape=umlLifeline;perimeter=lifelinePerimeter;whiteSpace=wrap;html=1;container=1;collapsible=0;recursiveResize=0;outlineConnect=0;" vertex="1" parent="1">
          <mxGeometry x="360" y="960" width="100" height="370" as="geometry" />
        </mxCell>
        <mxCell id="C-iexv-m7VxMcUPQXAUR-40" value="" style="html=1;points=[];perimeter=orthogonalPerimeter;" vertex="1" parent="C-iexv-m7VxMcUPQXAUR-39">
          <mxGeometry x="44" y="70" width="10" height="300" as="geometry" />
        </mxCell>
        <mxCell id="C-iexv-m7VxMcUPQXAUR-41" value="&lt;font style=&quot;font-size: 10px;&quot;&gt;returns HTTP status 404 and message&lt;/font&gt;" style="html=1;verticalAlign=bottom;endArrow=open;dashed=1;endSize=8;rounded=0;exitX=0.067;exitY=0.967;exitDx=0;exitDy=0;exitPerimeter=0;" edge="1" parent="C-iexv-m7VxMcUPQXAUR-39">
          <mxGeometry relative="1" as="geometry">
            <mxPoint x="235.67000000000007" y="328.96000000000004" as="sourcePoint" />
            <mxPoint x="54" y="330" as="targetPoint" />
          </mxGeometry>
        </mxCell>
        <mxCell id="C-iexv-m7VxMcUPQXAUR-42" value="" style="endArrow=open;endFill=1;endSize=12;html=1;rounded=0;entryX=0.01;entryY=-0.007;entryDx=0;entryDy=0;entryPerimeter=0;" edge="1" parent="C-iexv-m7VxMcUPQXAUR-39">
          <mxGeometry width="160" relative="1" as="geometry">
            <mxPoint x="54" y="290.27999999999986" as="sourcePoint" />
            <mxPoint x="235.0999999999999" y="290" as="targetPoint" />
          </mxGeometry>
        </mxCell>
        <mxCell id="C-iexv-m7VxMcUPQXAUR-43" value="Does POST with JSON data" style="edgeLabel;html=1;align=center;verticalAlign=middle;resizable=0;points=[];" vertex="1" connectable="0" parent="C-iexv-m7VxMcUPQXAUR-42">
          <mxGeometry x="0.1514" y="1" relative="1" as="geometry">
            <mxPoint x="-16" y="1" as="offset" />
          </mxGeometry>
        </mxCell>
        <mxCell id="C-iexv-m7VxMcUPQXAUR-44" value="&lt;font style=&quot;font-size: 10px;&quot;&gt;shows error message&lt;/font&gt;" style="html=1;verticalAlign=bottom;endArrow=open;dashed=1;endSize=8;rounded=0;exitX=0.6;exitY=0.383;exitDx=0;exitDy=0;exitPerimeter=0;entryX=0.99;entryY=0.569;entryDx=0;entryDy=0;entryPerimeter=0;" edge="1" parent="C-iexv-m7VxMcUPQXAUR-39">
          <mxGeometry x="0.0022" relative="1" as="geometry">
            <mxPoint x="44" y="330" as="sourcePoint" />
            <mxPoint x="-125.10000000000014" y="330.6999999999998" as="targetPoint" />
            <mxPoint as="offset" />
          </mxGeometry>
        </mxCell>
        <mxCell id="C-iexv-m7VxMcUPQXAUR-45" value="API" style="shape=umlLifeline;perimeter=lifelinePerimeter;whiteSpace=wrap;html=1;container=1;collapsible=0;recursiveResize=0;outlineConnect=0;" vertex="1" parent="1">
          <mxGeometry x="550" y="960" width="100" height="380" as="geometry" />
        </mxCell>
        <mxCell id="C-iexv-m7VxMcUPQXAUR-46" value="" style="html=1;points=[];perimeter=orthogonalPerimeter;" vertex="1" parent="C-iexv-m7VxMcUPQXAUR-45">
          <mxGeometry x="45" y="110" width="10" height="40" as="geometry" />
        </mxCell>
        <mxCell id="C-iexv-m7VxMcUPQXAUR-47" value="Saves object to DB" style="edgeStyle=orthogonalEdgeStyle;html=1;align=left;spacingLeft=2;endArrow=block;rounded=0;" edge="1" parent="C-iexv-m7VxMcUPQXAUR-45" source="C-iexv-m7VxMcUPQXAUR-46" target="C-iexv-m7VxMcUPQXAUR-46">
          <mxGeometry relative="1" as="geometry">
            <mxPoint x="-190" y="110" as="sourcePoint" />
            <Array as="points">
              <mxPoint x="100" y="110" />
              <mxPoint x="100" y="130" />
            </Array>
            <mxPoint x="50" y="140" as="targetPoint" />
          </mxGeometry>
        </mxCell>
        <mxCell id="C-iexv-m7VxMcUPQXAUR-48" value="" style="html=1;points=[];perimeter=orthogonalPerimeter;" vertex="1" parent="C-iexv-m7VxMcUPQXAUR-45">
          <mxGeometry x="45" y="200" width="10" height="40" as="geometry" />
        </mxCell>
        <mxCell id="C-iexv-m7VxMcUPQXAUR-49" value="Object wrong!" style="edgeStyle=orthogonalEdgeStyle;html=1;align=left;spacingLeft=2;endArrow=block;rounded=0;" edge="1" parent="C-iexv-m7VxMcUPQXAUR-45" source="C-iexv-m7VxMcUPQXAUR-48" target="C-iexv-m7VxMcUPQXAUR-48">
          <mxGeometry relative="1" as="geometry">
            <mxPoint x="-740" y="-130" as="sourcePoint" />
            <Array as="points">
              <mxPoint x="100" y="200" />
              <mxPoint x="100" y="220" />
            </Array>
            <mxPoint x="-500" y="-100" as="targetPoint" />
          </mxGeometry>
        </mxCell>
        <mxCell id="C-iexv-m7VxMcUPQXAUR-50" value="" style="html=1;points=[];perimeter=orthogonalPerimeter;" vertex="1" parent="C-iexv-m7VxMcUPQXAUR-45">
          <mxGeometry x="45" y="290" width="10" height="40" as="geometry" />
        </mxCell>
        <mxCell id="C-iexv-m7VxMcUPQXAUR-51" value="Object wrong!" style="edgeStyle=orthogonalEdgeStyle;html=1;align=left;spacingLeft=2;endArrow=block;rounded=0;" edge="1" parent="C-iexv-m7VxMcUPQXAUR-45" source="C-iexv-m7VxMcUPQXAUR-50" target="C-iexv-m7VxMcUPQXAUR-50">
          <mxGeometry relative="1" as="geometry">
            <mxPoint x="-1290" y="-370" as="sourcePoint" />
            <Array as="points">
              <mxPoint x="100" y="290" />
              <mxPoint x="100" y="310" />
            </Array>
            <mxPoint x="-1050" y="-340" as="targetPoint" />
          </mxGeometry>
        </mxCell>
        <mxCell id="C-iexv-m7VxMcUPQXAUR-52" value="" style="html=1;points=[];perimeter=orthogonalPerimeter;" vertex="1" parent="1">
          <mxGeometry x="225" y="1030" width="10" height="300" as="geometry" />
        </mxCell>
        <mxCell id="C-iexv-m7VxMcUPQXAUR-53" value="" style="endArrow=open;endFill=1;endSize=12;html=1;rounded=0;" edge="1" parent="1" target="C-iexv-m7VxMcUPQXAUR-39">
          <mxGeometry width="160" relative="1" as="geometry">
            <mxPoint x="235" y="1030" as="sourcePoint" />
            <mxPoint x="395" y="1030" as="targetPoint" />
          </mxGeometry>
        </mxCell>
        <mxCell id="C-iexv-m7VxMcUPQXAUR-54" value="Submits form" style="edgeLabel;html=1;align=center;verticalAlign=middle;resizable=0;points=[];" vertex="1" connectable="0" parent="C-iexv-m7VxMcUPQXAUR-53">
          <mxGeometry x="0.1514" y="1" relative="1" as="geometry">
            <mxPoint x="-16" y="1" as="offset" />
          </mxGeometry>
        </mxCell>
        <mxCell id="C-iexv-m7VxMcUPQXAUR-55" value="" style="endArrow=open;endFill=1;endSize=12;html=1;rounded=0;entryX=0.01;entryY=-0.007;entryDx=0;entryDy=0;entryPerimeter=0;" edge="1" parent="1" target="C-iexv-m7VxMcUPQXAUR-46">
          <mxGeometry width="160" relative="1" as="geometry">
            <mxPoint x="414" y="1070" as="sourcePoint" />
            <mxPoint x="588.5" y="1070" as="targetPoint" />
          </mxGeometry>
        </mxCell>
        <mxCell id="C-iexv-m7VxMcUPQXAUR-56" value="Does PUT with JSON data" style="edgeLabel;html=1;align=center;verticalAlign=middle;resizable=0;points=[];" vertex="1" connectable="0" parent="C-iexv-m7VxMcUPQXAUR-55">
          <mxGeometry x="0.1514" y="1" relative="1" as="geometry">
            <mxPoint x="-16" y="1" as="offset" />
          </mxGeometry>
        </mxCell>
        <mxCell id="C-iexv-m7VxMcUPQXAUR-57" value="&lt;font style=&quot;font-size: 10px;&quot;&gt;returns saved object: HTTP status 200&lt;/font&gt;" style="html=1;verticalAlign=bottom;endArrow=open;dashed=1;endSize=8;rounded=0;exitX=0.067;exitY=0.967;exitDx=0;exitDy=0;exitPerimeter=0;" edge="1" parent="1" source="C-iexv-m7VxMcUPQXAUR-46">
          <mxGeometry relative="1" as="geometry">
            <mxPoint x="494" y="1109.62" as="sourcePoint" />
            <mxPoint x="414" y="1109.62" as="targetPoint" />
          </mxGeometry>
        </mxCell>
        <mxCell id="C-iexv-m7VxMcUPQXAUR-58" value="&lt;font style=&quot;font-size: 10px;&quot;&gt;shows info on page&lt;/font&gt;" style="html=1;verticalAlign=bottom;endArrow=open;dashed=1;endSize=8;rounded=0;exitX=-0.141;exitY=0.268;exitDx=0;exitDy=0;exitPerimeter=0;entryX=0.99;entryY=0.266;entryDx=0;entryDy=0;entryPerimeter=0;" edge="1" parent="1" source="C-iexv-m7VxMcUPQXAUR-40" target="C-iexv-m7VxMcUPQXAUR-52">
          <mxGeometry x="0.0022" relative="1" as="geometry">
            <mxPoint x="400" y="1110" as="sourcePoint" />
            <mxPoint x="235" y="1110.4699999999998" as="targetPoint" />
            <mxPoint as="offset" />
          </mxGeometry>
        </mxCell>
        <mxCell id="C-iexv-m7VxMcUPQXAUR-59" value="" style="endArrow=open;endFill=1;endSize=12;html=1;rounded=0;entryX=0.01;entryY=-0.007;entryDx=0;entryDy=0;entryPerimeter=0;" edge="1" parent="1">
          <mxGeometry width="160" relative="1" as="geometry">
            <mxPoint x="414" y="1160.2799999999997" as="sourcePoint" />
            <mxPoint x="595.0999999999999" y="1160" as="targetPoint" />
          </mxGeometry>
        </mxCell>
        <mxCell id="C-iexv-m7VxMcUPQXAUR-60" value="Does POST with JSON data" style="edgeLabel;html=1;align=center;verticalAlign=middle;resizable=0;points=[];" vertex="1" connectable="0" parent="C-iexv-m7VxMcUPQXAUR-59">
          <mxGeometry x="0.1514" y="1" relative="1" as="geometry">
            <mxPoint x="-16" y="1" as="offset" />
          </mxGeometry>
        </mxCell>
        <mxCell id="C-iexv-m7VxMcUPQXAUR-61" value="&lt;font style=&quot;font-size: 10px;&quot;&gt;returns HTTP status 400 and message&lt;/font&gt;" style="html=1;verticalAlign=bottom;endArrow=open;dashed=1;endSize=8;rounded=0;exitX=0.067;exitY=0.967;exitDx=0;exitDy=0;exitPerimeter=0;" edge="1" parent="1">
          <mxGeometry relative="1" as="geometry">
            <mxPoint x="595.6700000000001" y="1198.96" as="sourcePoint" />
            <mxPoint x="414" y="1200" as="targetPoint" />
          </mxGeometry>
        </mxCell>
        <mxCell id="C-iexv-m7VxMcUPQXAUR-62" value="&lt;font style=&quot;font-size: 10px;&quot;&gt;shows error message&lt;/font&gt;" style="html=1;verticalAlign=bottom;endArrow=open;dashed=1;endSize=8;rounded=0;exitX=0.6;exitY=0.383;exitDx=0;exitDy=0;exitPerimeter=0;entryX=0.99;entryY=0.569;entryDx=0;entryDy=0;entryPerimeter=0;" edge="1" parent="1" target="C-iexv-m7VxMcUPQXAUR-52">
          <mxGeometry x="0.0022" relative="1" as="geometry">
            <mxPoint x="404" y="1200" as="sourcePoint" />
            <mxPoint x="240" y="1200" as="targetPoint" />
            <mxPoint as="offset" />
          </mxGeometry>
        </mxCell>
      </root>
    </mxGraphModel>
  </diagram>
</mxfile>
